<?xml version="1.0" standalone="no"?>
<!DOCTYPE svg PUBLIC "-//W3C//DTD SVG 20010904//EN"
 "http://www.w3.org/TR/2001/REC-SVG-20010904/DTD/svg10.dtd">
<svg version="1.0" xmlns="http://www.w3.org/2000/svg"
 width="512.000000pt" height="512.000000pt" viewBox="0 0 512.000000 512.000000"
 preserveAspectRatio="xMidYMid meet">
<metadata>
Created by potrace 1.11, written by Peter Selinger 2001-2013
</metadata>
<g transform="translate(0.000000,512.000000) scale(0.100000,-0.100000)"
fill="#000000" stroke="none">
<path d="M2465 4251 l80 -6 -61 -8 c-165 -21 -364 -83 -542 -168 -67 -33 -124
-59 -127 -59 -3 0 -13 -7 -22 -16 -10 -8 -67 -50 -128 -92 -187 -131 -365
-323 -499 -537 -171 -274 -285 -670 -256 -887 53 -404 239 -778 530 -1068 275
-275 597 -445 978 -515 l136 -25 123 20 c392 67 720 236 1004 519 290 291 465
638 524 1039 13 90 14 125 5 193 -83 626 -483 1172 -1055 1439 -157 74 -354
134 -512 157 l-58 8 80 6 c51 3 16 5 -100 5 -116 0 -151 -2 -100 -5z"/>
<path d="M5100 4165 c0 -5 5 -17 10 -25 5 -8 10 -10 10 -5 0 6 -5 17 -10 25
-5 8 -10 11 -10 5z"/>
</g>
</svg>
